<?xml version="1.0" encoding="UTF-8"?>
<svg version="1.1" xmlns="http://www.w3.org/2000/svg" width="474" height="183">
<path d="M0 0 C156.42 0 312.84 0 474 0 C474 60.39 474 120.78 474 183 C317.58 183 161.16 183 0 183 C0 122.61 0 62.22 0 0 Z " fill="#241F21" transform="translate(0,0)"/>
<path d="M0 0 C0 9.57 0 19.14 0 29 C1.98 28.01 3.96 27.02 6 26 C8.73096514 25.68877091 11.15568002 25.52133229 13.875 25.5625 C14.58390381 25.57152344 15.29280762 25.58054687 16.02319336 25.58984375 C22.90474807 25.81793533 26.99125265 27.12579014 31.921875 31.8359375 C39.73435455 40.26179355 41.39121422 48.03742048 41.2734375 59.296875 C40.55616041 69.01085621 36.88508696 77.11491304 30 84 C21.67180842 91.17699447 10.51772922 92.56676355 -0.12548828 92.28833008 C-4.17640665 91.98687232 -7.98585634 91.323087 -11.94921875 90.4765625 C-12.63222046 90.33516846 -13.31522217 90.19377441 -14.0189209 90.0480957 C-15.68026993 89.70346575 -17.34028464 89.35241356 -19 89 C-19.00808685 88.05674866 -19.01617371 87.11349731 -19.02450562 86.1416626 C-19.1019761 77.25423751 -19.18971769 68.36696535 -19.28752708 59.47974014 C-19.33748198 54.91067799 -19.38381212 50.34163886 -19.421875 45.77246094 C-19.45873796 41.36330177 -19.50510071 36.95433564 -19.55806351 32.54534149 C-19.57660208 30.86286555 -19.59171204 29.18034823 -19.60334396 27.49781036 C-19.62021567 25.14189366 -19.64925257 22.78641854 -19.68115234 20.43066406 C-19.68331253 19.73438904 -19.68547272 19.03811401 -19.68769836 18.32073975 C-19.74931926 14.76056982 -19.86422091 11.93225306 -22 9 C-25.04199472 7.70768358 -25.04199472 7.70768358 -28 7 C-28 6.01 -28 5.02 -28 4 C-24.83601018 3.32019419 -21.66846323 2.65861314 -18.5 2 C-17.613125 1.80921875 -16.72625 1.6184375 -15.8125 1.421875 C-14.9359375 1.24140625 -14.059375 1.0609375 -13.15625 0.875 C-12.36025391 0.70742188 -11.56425781 0.53984375 -10.74414062 0.3671875 C-7.19232529 -0.1080732 -3.58347107 0 0 0 Z " fill="#F9F8F9" transform="translate(262,39)"/>
<path d="M0 0 C7.71459658 5.43056488 12.93543802 10.62029781 15.13671875 19.953125 C16.97553878 31.08726462 16.50699813 40.33823281 10.88671875 50.328125 C8.44921875 53.265625 8.44921875 53.265625 5.88671875 55.328125 C4.93796875 56.194375 3.98921875 57.060625 3.01171875 57.953125 C-4.83531514 63.91687075 -13.51987152 65.09220188 -23.11328125 64.328125 C-31.72394375 62.79329392 -38.52344684 58.94540515 -43.92578125 52.015625 C-49.91193756 42.63192052 -50.27479369 32.18379899 -49.11328125 21.328125 C-48.26049434 17.90322275 -47.03931232 15.26785663 -45.11328125 12.328125 C-44.76265625 11.709375 -44.41203125 11.090625 -44.05078125 10.453125 C-35.6458929 -3.088084 -13.83998324 -7.72211246 0 0 Z " fill="#F9F8F8" transform="translate(167.11328125,66.671875)"/>
<path d="M0 0 C24.75 0 49.5 0 75 0 C75 8.25 75 16.5 75 25 C73.68 25.33 72.36 25.66 71 26 C70.62488281 25.26394531 70.24976562 24.52789062 69.86328125 23.76953125 C66.05749336 16.51265108 62.95944035 10.90957012 55.09301758 7.64208984 C51.15928039 6.43530939 47.14955462 6.42211721 43.0625 6.3125 C40.071875 6.209375 37.08125 6.10625 34 6 C34 17.88 34 29.76 34 42 C44.94772642 41.83562902 44.94772642 41.83562902 50 39 C51.33346029 36.84255767 51.33346029 36.84255767 52.25 34.375 C52.58515625 33.55773437 52.9203125 32.74046875 53.265625 31.8984375 C53.50796875 31.27195312 53.7503125 30.64546875 54 30 C55.32 30 56.64 30 58 30 C58 39.9 58 49.8 58 60 C56.68 60 55.36 60 54 60 C53.52014033 58.72942818 53.0411407 57.45853152 52.5625 56.1875 C52.29566406 55.47980469 52.02882812 54.77210937 51.75390625 54.04296875 C51.13774814 52.37327604 50.56280765 50.68842296 50 49 C44.72 48.34 39.44 47.68 34 47 C34.08728734 51.33426784 34.19423408 55.66655831 34.3125 60 C34.34633789 61.83111328 34.34633789 61.83111328 34.38085938 63.69921875 C34.55487254 74.75783521 34.55487254 74.75783521 40 84 C42.65537372 84.56520003 45.29144713 84.73788198 48 85 C48 86.32 48 87.64 48 89 C32.16 89 16.32 89 0 89 C0 87.68 0 86.36 0 85 C0.61488281 84.87625 1.22976562 84.7525 1.86328125 84.625 C3.07564453 84.315625 3.07564453 84.315625 4.3125 84 C5.11300781 83.814375 5.91351563 83.62875 6.73828125 83.4375 C10.26776582 81.1942352 11.06638621 77.90086388 12 74 C12.41480003 69.51608003 12.39705254 65.05900094 12.36328125 60.55859375 C12.36377975 59.27694839 12.36427826 57.99530304 12.36479187 56.67481995 C12.36470263 53.97425402 12.35437181 51.27398962 12.33618164 48.57348633 C12.31347316 45.12831499 12.31295971 41.68358224 12.31969929 38.23835659 C12.32386103 34.92838649 12.31185621 31.61854883 12.30078125 28.30859375 C12.30169266 27.0792662 12.30260406 25.84993866 12.30354309 24.58335876 C12.55108616 14.65438823 12.55108616 14.65438823 8.25 6.125 C5.51796153 4.75898077 3.02156585 4.34335976 0 4 C0 2.68 0 1.36 0 0 Z " fill="#FAFAFA" transform="translate(52,40)"/>
<path d="M0 0 C6.38258472 4.05903703 11.18109716 10.30887402 13.375 17.5 C13.87 22.945 13.87 22.945 14.375 28.5 C1.175 28.5 -12.025 28.5 -25.625 28.5 C-23.47923073 42.13632233 -23.47923073 42.13632233 -15.25 52.625 C-9.33395425 55.80882615 -2.11097162 55.34783943 4.375 54.5 C6.3854446 53.52116778 8.38768443 52.52497651 10.375 51.5 C11.365 51.83 12.355 52.16 13.375 52.5 C13.375 54.5 13.375 54.5 11.828125 56.0859375 C3.67281892 62.70850875 -5.2777134 66.37503299 -15.90625 65.87109375 C-25.89401751 64.50782089 -32.98006914 60.00951294 -39.625 52.5 C-45.89879498 43.20548891 -45.98491782 30.72188849 -44.19921875 19.92578125 C-41.28718099 11.11820691 -34.7515032 5.00549868 -26.859375 0.59375 C-19.7375864 -2.89244023 -7.40633686 -3.32918508 0 0 Z " fill="#F8F7F7" transform="translate(353.625,65.5)"/>
<path d="M0 0 C0 5.61 0 11.22 0 17 C-1.32 17 -2.64 17 -4 17 C-4.30292969 16.32453125 -4.60585938 15.6490625 -4.91796875 14.953125 C-8.12040189 7.83956876 -8.12040189 7.83956876 -14 3 C-17.55232976 2.05508028 -20.78077553 1.6470666 -24.375 2.6875 C-26.47715593 4.38539518 -27.22342029 5.38786824 -28 8 C-27.93027829 11.90441586 -27.86547223 14.14313087 -25.03515625 16.9453125 C-20.32647148 20.13291635 -15.16291544 22.23316796 -9.94921875 24.46875 C-3.90179039 27.19247364 -0.04485465 29.9102907 3 36 C3.56490993 42.5507824 3.49316728 48.25317642 0 54 C-5.74026002 60.42362431 -13.43212912 63.55192596 -21.9609375 64.23828125 C-31.22337011 64.43963848 -38.20409016 62.87213383 -47 60 C-47 53.73 -47 47.46 -47 41 C-43 42 -43 42 -41.47265625 44.14453125 C-41.00730469 45.02496094 -40.54195313 45.90539062 -40.0625 46.8125 C-36.96002065 52.27960829 -36.96002065 52.27960829 -32 56 C-27.3285101 57.23299547 -24.036907 57.40735632 -19.5 55.625 C-17.15377544 54.22294351 -17.15377544 54.22294351 -16 53 C-15.49795402 49.924174 -15.48410004 47.07434263 -16 44 C-20.09115489 38.85683385 -25.7652064 37.51882848 -31.796875 35.30859375 C-37.68992827 32.90106589 -41.74014835 30.12599966 -45 24.625 C-46.84456534 17.93845066 -46.76350556 12.93811246 -43.39453125 6.890625 C-33.40383488 -6.65418465 -14.16660877 -4.72220292 0 0 Z " fill="#F8F7F8" transform="translate(419,67)"/>
<path d="M0 0 C0.33 3.3 0.66 6.6 1 10 C1.680625 9.0925 2.36125 8.185 3.0625 7.25 C5.89731841 3.92696286 8.77510582 1.31744012 13 0 C17.0249752 -0.31271737 20.97263238 -0.23807099 25 0 C26.35114472 3.05744748 25.9224598 4.22040365 24.78515625 7.453125 C24.22254947 8.72395443 23.64790949 9.98951218 23.0625 11.25 C22.77181641 11.8996875 22.48113281 12.549375 22.18164062 13.21875 C21.46471025 14.81715215 20.73371051 16.40923054 20 18 C19.13761719 17.83757812 18.27523437 17.67515625 17.38671875 17.5078125 C14.13634171 17.02044339 11.09539398 16.86667834 7.8125 16.875 C6.78769531 16.87242188 5.76289063 16.86984375 4.70703125 16.8671875 C1.90212095 16.88298222 1.90212095 16.88298222 -1 18 C-0.90559631 22.39284168 -0.79932408 26.78519775 -0.68261719 31.17749023 C-0.6446185 32.66797273 -0.60971804 34.15853789 -0.578125 35.64916992 C-1.20972226 48.68488676 -1.20972226 48.68488676 3 60 C4.34747084 60.23075082 5.70377565 60.41153063 7.0625 60.5625 C8.361875 60.706875 9.66125 60.85125 11 61 C11 62.32 11 63.64 11 65 C-2.2 65 -15.4 65 -29 65 C-29 63.68 -29 62.36 -29 61 C-27.88625 60.773125 -26.7725 60.54625 -25.625 60.3125 C-21.95478546 59.41818445 -21.95478546 59.41818445 -20.79003906 56.95483398 C-19.7573452 53.09244406 -19.71395589 49.37738104 -19.734375 45.41015625 C-19.73246155 44.58801132 -19.7305481 43.76586639 -19.72857666 42.91880798 C-19.72721939 41.18488254 -19.73088379 39.45094677 -19.73925781 37.71704102 C-19.74995023 35.07479816 -19.73935419 32.43323727 -19.7265625 29.79101562 C-19.72788444 28.10156101 -19.73044756 26.41210682 -19.734375 24.72265625 C-19.73032654 23.93810562 -19.72627808 23.15355499 -19.72210693 22.3452301 C-19.75979152 17.89673352 -20.05015726 14.09443369 -22 10 C-25.52451159 8.53977565 -25.52451159 8.53977565 -29 8 C-29 7.01 -29 6.02 -29 5 C-24.91793652 4.16036331 -20.8341578 3.32938441 -16.75 2.5 C-15.59113281 2.26152344 -14.43226563 2.02304688 -13.23828125 1.77734375 C-12.12324219 1.55175781 -11.00820312 1.32617188 -9.859375 1.09375 C-8.83295898 0.88427734 -7.80654297 0.67480469 -6.74902344 0.45898438 C-4 0 -4 0 0 0 Z " fill="#F8F8F8" transform="translate(212,64)"/>
<path d="M0 0 C6.75020208 5.49435053 9.11172326 11.58111041 10 20 C11.51574902 45.92158758 11.51574902 45.92158758 4.8125 55.75 C1.59827591 58.32137927 -0.0460889 58.849406 -4.07421875 58.515625 C-7.48060096 57.60357134 -8.93572353 55.7720284 -11 53 C-15.28148989 44.58993058 -15.2085769 36.41967398 -15.25 27.1875 C-15.2809375 25.48110352 -15.2809375 25.48110352 -15.3125 23.74023438 C-15.34526512 16.64249094 -15.30353393 9.16310497 -10.68920898 3.34814453 C-7.29310054 0.15797796 -4.5488943 -0.96784985 0 0 Z " fill="#242122" transform="translate(153,68)"/>
<path d="M0 0 C12 0 12 0 15.5625 3 C16.88671875 4.9765625 16.88671875 4.9765625 18 7 C18.61875 8.11375 19.2375 9.2275 19.875 10.375 C21.29726566 14.6670443 21.27867586 19.02071788 21.3125 23.5 C21.31813965 24.2120459 21.3237793 24.9240918 21.32958984 25.65771484 C21.23401289 32.70286995 19.79864289 38.99143586 16.5625 45.3125 C16.15128906 46.13363281 15.74007813 46.95476562 15.31640625 47.80078125 C13.25560237 51.24360791 11.83936204 52.72021265 8 54 C5.36 54 2.72 54 0 54 C0 36.18 0 18.36 0 0 Z " fill="#242222" transform="translate(262,72)"/>
<path d="M0 0 C3.28457934 0.75797985 4.39941682 1.89190824 6.4375 4.5625 C9.11820726 10.05794989 8.58337572 15.58159545 8.4375 21.5625 C1.8375 21.5625 -4.7625 21.5625 -11.5625 21.5625 C-10.13877119 8.74894068 -10.13877119 8.74894068 -5.1875 2.625 C-2.5625 0.5625 -2.5625 0.5625 0 0 Z " fill="#252223" transform="translate(339.5625,67.4375)"/>
<path d="M0 0 C0.33 0 0.66 0 1 0 C1 7.26 1 14.52 1 22 C2.8975 21.87625 4.795 21.7525 6.75 21.625 C7.81734375 21.55539063 8.8846875 21.48578125 9.984375 21.4140625 C12.89274441 21.0147268 14.62546497 20.69609645 17 19 C18.33346029 16.84255767 18.33346029 16.84255767 19.25 14.375 C19.58515625 13.55773437 19.9203125 12.74046875 20.265625 11.8984375 C20.50796875 11.27195312 20.7503125 10.64546875 21 10 C22.32 10 23.64 10 25 10 C25 19.9 25 29.8 25 40 C23.68 40 22.36 40 21 40 C20.52014033 38.72942818 20.0411407 37.45853152 19.5625 36.1875 C19.29566406 35.47980469 19.02882813 34.77210937 18.75390625 34.04296875 C18.13774814 32.37327604 17.56280765 30.68842296 17 29 C12.38 28.34 7.76 27.68 3 27 C3 25 3 25 4 24 C2.68 23.67 1.36 23.34 0 23 C0 15.41 0 7.82 0 0 Z " fill="#EEEDED" transform="translate(85,60)"/>
<path d="M0 0 C4 1 4 1 5.52734375 3.14453125 C5.99269531 4.02496094 6.45804687 4.90539062 6.9375 5.8125 C9.18443699 9.7900324 11.1011138 12.47099273 15 15 C18 17 18 17 19 19 C18.67 19.66 18.34 20.32 18 21 C21.3 21.33 24.6 21.66 28 22 C28 22.33 28 22.66 28 23 C17.52123013 23.57330656 9.98477902 22.26033601 0 19 C0 12.73 0 6.46 0 0 Z " fill="#ECEAEB" transform="translate(372,108)"/>
<path d="M0 0 C10.89 0 21.78 0 33 0 C33 0.33 33 0.66 33 1 C32.16227051 1.01981934 31.32454102 1.03963867 30.46142578 1.06005859 C27.35634166 1.13810612 24.25165461 1.22479635 21.14697266 1.31738281 C19.14113029 1.37454036 17.13501082 1.42168596 15.12890625 1.46875 C13.24365234 1.52675781 13.24365234 1.52675781 11.3203125 1.5859375 C10.15773926 1.6173584 8.99516602 1.6487793 7.79736328 1.68115234 C4.86343518 1.72157869 4.86343518 1.72157869 3 4 C2.01 4 1.02 4 0 4 C0 2.68 0 1.36 0 0 Z " fill="#F5F2F4" transform="translate(52,40)"/>
<path d="M0 0 C1.12588014 0.95729916 2.2506715 1.91587895 3.375 2.875 C4.00148438 3.40867187 4.62796875 3.94234375 5.2734375 4.4921875 C6.55836651 5.61432007 7.79371975 6.79371975 9 8 C7.02 8.33 5.04 8.66 3 9 C3 8.34 3 7.68 3 7 C1.68 6.34 0.36 5.68 -1 5 C-0.67 3.35 -0.34 1.7 0 0 Z M1 4 C2 6 2 6 2 6 Z " fill="#2C2628" transform="translate(314,118)"/>
<path d="M0 0 C2.125 0.375 2.125 0.375 4 1 C3.01 1 2.02 1 1 1 C1.66 2.98 2.32 4.96 3 7 C-1.875 6.125 -1.875 6.125 -3 5 C-5.33297433 4.95907063 -7.66705225 4.95758277 -10 5 C-9.67 4.01 -9.34 3.02 -9 2 C-7.329375 2.061875 -7.329375 2.061875 -5.625 2.125 C-1.95633975 2.41121859 -1.95633975 2.41121859 0 0 Z " fill="#E8E5E6" transform="translate(156,64)"/>
<path d="M0 0 C1.875 0.125 1.875 0.125 4 1 C5.25 4.0625 5.25 4.0625 6 7 C5.01 7.33 4.02 7.66 3 8 C0.83956057 5.83956057 0.5455533 4.90961761 0 2 C0 1.34 0 0.68 0 0 Z " fill="#292727" transform="translate(115,55)"/>
<path d="M0 0 C0.66 0.33 1.32 0.66 2 1 C1.34 2.32 0.68 3.64 0 5 C1.98 5 3.96 5 6 5 C6 5.33 6 5.66 6 6 C3.03 6 0.06 6 -3 6 C-3.33 4.68 -3.66 3.36 -4 2 C-2.125 0.9375 -2.125 0.9375 0 0 Z " fill="#D2D0D1" transform="translate(266,66)"/>
<path d="M0 0 C0.33 1.32 0.66 2.64 1 4 C-0.32 4.33 -1.64 4.66 -3 5 C-3 4.01 -3 3.02 -3 2 C-3.78375 2.20625 -4.5675 2.4125 -5.375 2.625 C-6.24125 2.74875 -7.1075 2.8725 -8 3 C-8.66 2.34 -9.32 1.68 -10 1 C-6.52674819 -0.1577506 -3.63932552 -0.06866652 0 0 Z " fill="#DFDDDE" transform="translate(339,64)"/>
<path d="M0 0 C-1.625 1.625 -1.625 1.625 -4 3 C-7.25 2.1875 -7.25 2.1875 -10 1 C-9.67 0.34 -9.34 -0.32 -9 -1 C-5.26793158 -2.21040057 -3.31957615 -2.0901035 0 0 Z " fill="#2A2829" transform="translate(102,90)"/>
<path d="M0 0 C0.99 0.33 1.98 0.66 3 1 C2.34 1.66 1.68 2.32 1 3 C0.83312552 5.58354218 0.83312552 5.58354218 1 8 C-0.32 8.33 -1.64 8.66 -3 9 C-2.25 2.25 -2.25 2.25 0 0 Z " fill="#1D1A1B" transform="translate(420,119)"/>
<path d="M0 0 C0.33 0 0.66 0 1 0 C1 4.62 1 9.24 1 14 C-0.32 13.67 -1.64 13.34 -3 13 C-2.34 12.67 -1.68 12.34 -1 12 C-0.53101037 9.1840151 -0.53101037 9.1840151 -0.375 5.9375 C-0.30023438 4.83277344 -0.22546875 3.72804688 -0.1484375 2.58984375 C-0.09945312 1.73519531 -0.05046875 0.88054687 0 0 Z " fill="#1E191A" transform="translate(63,104)"/>
<path d="M0 0 C0.66 0 1.32 0 2 0 C2.33 1.32 2.66 2.64 3 4 C-1.29 3.67 -5.58 3.34 -10 3 C-10 2.67 -10 2.34 -10 2 C-9.04287109 1.90912109 -9.04287109 1.90912109 -8.06640625 1.81640625 C-6.82697266 1.69072266 -6.82697266 1.69072266 -5.5625 1.5625 C-4.73878906 1.48128906 -3.91507813 1.40007813 -3.06640625 1.31640625 C-1.01337975 1.21069185 -1.01337975 1.21069185 0 0 Z " fill="#1A1617" transform="translate(157,60)"/>
<path d="M0 0 C3.36720387 1.39332574 4.9859524 2.9789286 7 6 C6.34 6.66 5.68 7.32 5 8 C4.67 6.68 4.34 5.36 4 4 C2.68 3.67 1.36 3.34 0 3 C0 2.01 0 1.02 0 0 Z " fill="#292728" transform="translate(272,72)"/>
<path d="M0 0 C0.33 0 0.66 0 1 0 C0.67 2.31 0.34 4.62 0 7 C-0.99 7 -1.98 7 -3 7 C-2.25 2.25 -2.25 2.25 0 0 Z " fill="#2D282A" transform="translate(143,71)"/>
<path d="M0 0 C-1.25 1.5 -1.25 1.5 -3 3 C-4.32 3 -5.64 3 -7 3 C-7 2.01 -7 1.02 -7 0 C-3.86650268 -1.04449911 -3.01031744 -0.93423645 0 0 Z " fill="#DDD9DA" transform="translate(190,69)"/>
<path d="M0 0 C2.125 0.375 2.125 0.375 4 1 C3.34 2.32 2.68 3.64 2 5 C1.34 5 0.68 5 0 5 C0 4.34 0 3.68 0 3 C-0.66 2.67 -1.32 2.34 -2 2 C-1.34 1.34 -0.68 0.68 0 0 Z " fill="#2F2C2D" transform="translate(214,80)"/>
<path d="M0 0 C0.66 0.33 1.32 0.66 2 1 C1.34 2.32 0.68 3.64 0 5 C-1.65 5 -3.3 5 -5 5 C-3.35 3.35 -1.7 1.7 0 0 Z " fill="#363334" transform="translate(417,122)"/>
<path d="M0 0 C1.98 0 3.96 0 6 0 C5.01 0.66 4.02 1.32 3 2 C3.33 2.66 3.66 3.32 4 4 C2.35 3.67 0.7 3.34 -1 3 C-0.67 2.01 -0.34 1.02 0 0 Z " fill="#191617" transform="translate(218,80)"/>
<path d="M0 0 C0 1.32 0 2.64 0 4 C-1.32 4.33 -2.64 4.66 -4 5 C-4.33 4.01 -4.66 3.02 -5 2 C-2 0 -2 0 0 0 Z " fill="#F5F2F3" transform="translate(127,61)"/>
</svg>
