<svg width="445" height="45" viewBox="0 0 445 45" fill="none" xmlns="http://www.w3.org/2000/svg">
<path d="M0.69197 30.84H2.76397C3.0253 32.52 3.51064 34.032 4.21997 35.376C4.96664 36.72 5.8813 37.8587 6.96397 38.792C8.08397 39.7253 9.3533 40.4533 10.772 40.976C12.228 41.4613 13.796 41.704 15.476 41.704C18.2386 41.704 20.4226 41.0507 22.028 39.744C23.6333 38.4373 24.436 36.664 24.436 34.424C24.436 33.4907 24.268 32.632 23.932 31.848C23.6333 31.064 23.1106 30.3173 22.364 29.608C21.6173 28.8613 20.6093 28.1333 19.34 27.424C18.108 26.7147 16.54 25.9493 14.636 25.128C12.3213 24.12 10.38 23.1493 8.81197 22.216C7.24397 21.2827 5.9933 20.312 5.05997 19.304C4.12664 18.296 3.45464 17.232 3.04397 16.112C2.67064 14.9547 2.48397 13.648 2.48397 12.192C2.48397 10.4747 2.78264 8.888 3.37997 7.432C4.01464 5.976 4.89197 4.72533 6.01197 3.68C7.13197 2.59733 8.4573 1.776 9.98797 1.216C11.5186 0.618664 13.1986 0.319998 15.028 0.319998C16.6706 0.319998 18.2013 0.581332 19.62 1.104C21.0386 1.62666 22.476 2.46667 23.932 3.624L25.388 1.104H26.676L27.292 12.248H25.22C24.324 9.18666 23.0173 6.90933 21.3 5.416C19.62 3.92267 17.5853 3.176 15.196 3.176C12.9186 3.176 11.108 3.736 9.76397 4.856C8.41997 5.976 7.74797 7.488 7.74797 9.392C7.74797 10.288 7.8973 11.1093 8.19597 11.856C8.49464 12.5653 8.97997 13.256 9.65197 13.928C10.324 14.5627 11.2013 15.216 12.284 15.888C13.3666 16.5227 14.7106 17.1947 16.316 17.904C19.0786 19.136 21.3746 20.2933 23.204 21.376C25.0333 22.4213 26.4893 23.4853 27.572 24.568C28.6546 25.6133 29.42 26.7333 29.868 27.928C30.316 29.0853 30.54 30.392 30.54 31.848C30.54 33.7147 30.1666 35.432 29.42 37C28.6733 38.568 27.628 39.912 26.284 41.032C24.94 42.152 23.3346 43.0293 21.468 43.664C19.6013 44.2613 17.548 44.56 15.308 44.56C13.18 44.56 11.2573 44.2613 9.53997 43.664C7.85997 43.0667 6.14264 42.0587 4.38797 40.64L2.81997 43.384H1.53197L0.69197 30.84ZM76.6577 11.688C76.6577 13.6667 76.3404 15.44 75.7057 17.008C75.0711 18.576 74.0631 19.9013 72.6817 20.984C71.3377 22.0667 69.5644 22.9067 67.3617 23.504C65.1964 24.1013 62.5457 24.4 59.4097 24.4H54.3697V35.208C54.3697 36.5893 54.4444 37.728 54.5937 38.624C54.7804 39.4827 55.1351 40.1547 55.6577 40.64C56.2177 41.1253 57.0017 41.4613 58.0097 41.648C59.0551 41.7973 60.4177 41.872 62.0977 41.872V44H42.3297V41.872C43.6364 41.8347 44.6817 41.7227 45.4657 41.536C46.2871 41.3493 46.9217 41.032 47.3697 40.584C47.8177 40.136 48.1164 39.5013 48.2657 38.68C48.4151 37.8587 48.4897 36.7947 48.4897 35.488V9.392C48.4897 8.08533 48.4151 7.04 48.2657 6.256C48.1537 5.43466 47.8924 4.8 47.4817 4.352C47.1084 3.86667 46.5484 3.54933 45.8017 3.4C45.0551 3.21333 44.0844 3.08266 42.8897 3.008V0.879998H60.4737C65.6257 0.879998 69.6017 1.832 72.4017 3.736C75.2391 5.64 76.6577 8.29066 76.6577 11.688ZM54.3697 21.6H58.3457C62.0791 21.6 64.8417 20.8907 66.6337 19.472C68.4631 18.016 69.3777 15.6453 69.3777 12.36C69.3777 9.18667 68.6497 6.928 67.1937 5.584C65.7751 4.20266 63.5351 3.512 60.4737 3.512H55.3217C54.6871 3.512 54.3697 3.82933 54.3697 4.464V21.6ZM99.087 33.416C99.087 35.2827 99.1617 36.7573 99.311 37.84C99.4604 38.9227 99.7404 39.7627 100.151 40.36C100.599 40.9573 101.215 41.3493 101.999 41.536C102.82 41.7227 103.884 41.8347 105.191 41.872V44H87.047V41.872C88.3537 41.8347 89.399 41.7227 90.183 41.536C91.0044 41.312 91.639 40.92 92.087 40.36C92.535 39.8 92.8337 39.016 92.983 38.008C93.1324 36.9627 93.207 35.5627 93.207 33.808V11.072C93.207 9.504 93.1324 8.216 92.983 7.208C92.871 6.16266 92.6097 5.34133 92.199 4.744C91.8257 4.14667 91.2657 3.736 90.519 3.512C89.7724 3.25067 88.8017 3.08266 87.607 3.008V0.879998H104.631V3.008C103.436 3.04533 102.466 3.19467 101.719 3.456C101.01 3.71733 100.45 4.16533 100.039 4.8C99.6657 5.39733 99.4044 6.23733 99.255 7.32C99.143 8.40266 99.087 9.784 99.087 11.464V33.416ZM152.024 0.879998H153.592L154.096 13.76H152.024C151.202 10.4747 149.616 7.89867 147.264 6.032C144.912 4.16533 142.074 3.232 138.752 3.232C136.474 3.232 134.44 3.68 132.648 4.576C130.856 5.472 129.344 6.76 128.112 8.44C126.88 10.12 125.928 12.1733 125.256 14.6C124.621 17.0267 124.304 19.7707 124.304 22.832C124.304 28.8427 125.554 33.472 128.056 36.72C130.557 39.9307 134.178 41.536 138.92 41.536C146.125 41.536 150.754 37.7093 152.808 30.056H155.104V44H153.144L151.856 39.576C147.936 42.8987 143.194 44.56 137.632 44.56C134.458 44.56 131.584 44.056 129.008 43.048C126.469 42.04 124.285 40.6213 122.456 38.792C120.664 36.9253 119.264 34.6667 118.256 32.016C117.285 29.3653 116.8 26.416 116.8 23.168C116.8 19.7707 117.322 16.672 118.368 13.872C119.413 11.072 120.869 8.664 122.736 6.648C124.64 4.632 126.898 3.08266 129.512 2C132.162 0.879998 135.074 0.319998 138.248 0.319998C140.488 0.319998 142.597 0.637332 144.576 1.272C146.554 1.90666 148.701 2.93333 151.016 4.352L152.024 0.879998ZM170.994 7.824C170.434 6.85333 169.911 6.06933 169.426 5.472C168.941 4.83733 168.437 4.33333 167.914 3.96C167.429 3.58667 166.906 3.344 166.346 3.232C165.786 3.08266 165.114 3.008 164.33 3.008V0.879998H181.97V3.008C180.103 3.008 178.778 3.15733 177.994 3.456C177.247 3.71733 176.874 4.20267 176.874 4.912C176.874 5.696 177.303 6.816 178.162 8.272L186.842 23.112H187.066L193.394 12.472C194.589 10.456 195.429 8.86933 195.914 7.712C196.437 6.55467 196.698 5.62133 196.698 4.912C196.698 4.20267 196.418 3.71733 195.858 3.456C195.335 3.15733 194.402 3.008 193.058 3.008V0.879998H205.882V3.008C205.098 3.008 204.389 3.12 203.754 3.344C203.157 3.568 202.522 4.016 201.85 4.688C201.178 5.36 200.431 6.29333 199.61 7.488C198.826 8.68267 197.855 10.2507 196.698 12.192L188.074 26.752V33.416C188.074 35.2453 188.13 36.72 188.242 37.84C188.391 38.9227 188.671 39.7627 189.082 40.36C189.53 40.9573 190.146 41.368 190.93 41.592C191.751 41.7787 192.834 41.872 194.178 41.872V44H176.034V41.872C177.378 41.872 178.442 41.7787 179.226 41.592C180.047 41.368 180.663 40.976 181.074 40.416C181.522 39.8187 181.821 38.9973 181.97 37.952C182.119 36.9067 182.194 35.5253 182.194 33.808V26.976L170.994 7.824ZM276.577 35.544L285.313 11.24C285.836 9.784 286.209 8.62667 286.433 7.768C286.657 6.90933 286.769 6.16267 286.769 5.528C286.769 4.55733 286.452 3.904 285.817 3.568C285.22 3.19466 284.137 3.008 282.569 3.008V0.879998H296.177V3.008C294.46 3.008 293.153 3.36266 292.257 4.072C291.398 4.78133 290.67 5.93867 290.073 7.544L276.017 44.56H274.057L263.305 12.696L251.377 44.56H249.417L237.769 12.416C237.097 10.624 236.481 9.13066 235.921 7.936C235.398 6.704 234.82 5.73333 234.185 5.024C233.588 4.31466 232.897 3.81066 232.113 3.512C231.329 3.21333 230.377 3.064 229.257 3.064V0.879998H247.513V3.064C245.609 3.064 244.265 3.232 243.481 3.568C242.734 3.904 242.361 4.55733 242.361 5.528C242.361 6.01333 242.436 6.57333 242.585 7.208C242.734 7.84266 242.958 8.58933 243.257 9.448L251.769 35.376L258.657 16C259.18 14.544 259.684 13.2 260.169 11.968C260.692 10.6987 261.102 9.56 261.401 8.552C260.878 7.46933 260.393 6.57333 259.945 5.864C259.534 5.15466 259.105 4.59466 258.657 4.184C258.246 3.77333 257.798 3.49333 257.313 3.344C256.865 3.15733 256.38 3.064 255.857 3.064V0.879998H272.993V3.064C271.91 3.064 271.033 3.10133 270.361 3.176C269.689 3.25066 269.166 3.38133 268.793 3.568C268.457 3.71733 268.214 3.94133 268.065 4.24C267.953 4.53867 267.897 4.89333 267.897 5.304C267.897 5.864 267.99 6.55466 268.177 7.376C268.401 8.16 268.7 9.168 269.073 10.4L276.577 35.544ZM316.549 20.312C318.565 20.312 320.245 20.2 321.589 19.976C322.97 19.7147 324.053 19.3227 324.837 18.8C325.658 18.2773 326.237 17.6053 326.573 16.784C326.946 15.9627 327.133 14.992 327.133 13.872H329.093V29.16H327.133C327.133 28.04 326.965 27.0693 326.629 26.248C326.33 25.4267 325.77 24.7547 324.949 24.232C324.165 23.672 323.082 23.2613 321.701 23C320.357 22.7013 318.639 22.552 316.549 22.552V35.208C316.549 36.44 316.698 37.4667 316.997 38.288C317.295 39.072 317.799 39.7253 318.509 40.248C319.255 40.7333 320.226 41.088 321.421 41.312C322.615 41.4987 324.09 41.592 325.845 41.592C327.823 41.592 329.503 41.4613 330.885 41.2C332.266 40.9013 333.423 40.416 334.357 39.744C335.29 39.072 336.037 38.1947 336.597 37.112C337.157 35.992 337.623 34.6107 337.997 32.968H340.125L339.285 44H304.509V41.872C305.815 41.8347 306.861 41.7227 307.645 41.536C308.466 41.3493 309.101 41.032 309.549 40.584C309.997 40.136 310.295 39.5013 310.445 38.68C310.594 37.8587 310.669 36.7947 310.669 35.488V9.392C310.669 8.08533 310.594 7.04 310.445 6.256C310.333 5.43466 310.071 4.8 309.661 4.352C309.287 3.86667 308.727 3.54933 307.981 3.4C307.234 3.21333 306.263 3.08266 305.069 3.008V0.879998H337.437L337.941 10.736H335.981C335.757 9.24267 335.383 8.02933 334.861 7.096C334.375 6.12533 333.685 5.36 332.789 4.8C331.93 4.24 330.829 3.848 329.485 3.624C328.141 3.4 326.517 3.288 324.613 3.288H317.501C316.866 3.288 316.549 3.60533 316.549 4.24V20.312ZM376.221 28.376H361.269C360.635 29.9067 360.093 31.2693 359.645 32.464C359.197 33.6213 358.824 34.6293 358.525 35.488C358.264 36.3467 358.077 37.0747 357.965 37.672C357.853 38.2693 357.797 38.7547 357.797 39.128C357.797 40.1733 358.133 40.9013 358.805 41.312C359.477 41.6853 360.597 41.872 362.165 41.872V44H348.557V41.872C349.416 41.76 350.144 41.6107 350.741 41.424C351.376 41.2373 351.917 40.976 352.365 40.64C352.851 40.304 353.261 39.8747 353.597 39.352C353.971 38.792 354.325 38.12 354.661 37.336L369.221 0.879998H371.629L384.341 32.464C385.2 34.5547 385.947 36.2347 386.581 37.504C387.216 38.736 387.832 39.6693 388.429 40.304C389.027 40.9387 389.661 41.3493 390.333 41.536C391.043 41.7227 391.883 41.816 392.853 41.816V44H374.597V41.816C376.576 41.816 377.939 41.6293 378.685 41.256C379.432 40.8827 379.805 40.2667 379.805 39.408C379.805 39.0347 379.787 38.6987 379.749 38.4C379.712 38.064 379.637 37.7093 379.525 37.336C379.451 36.9627 379.32 36.552 379.133 36.104C378.984 35.6187 378.779 35.0587 378.517 34.424L376.221 28.376ZM362.389 25.576H375.157L368.941 9.056L362.389 25.576ZM435.271 11.688C435.271 14.6747 434.375 17.1573 432.583 19.136C430.791 21.1147 427.935 22.44 424.015 23.112L436.391 38.008C437.399 39.24 438.501 40.136 439.695 40.696C440.927 41.2187 442.383 41.6107 444.063 41.872V44H433.255L419.535 26.416C419.05 25.7813 418.583 25.2773 418.135 24.904C417.725 24.5307 417.277 24.2507 416.791 24.064C416.343 23.84 415.802 23.7093 415.167 23.672C414.57 23.5973 413.842 23.56 412.983 23.56V35.208C412.983 36.5893 413.058 37.728 413.207 38.624C413.394 39.4827 413.749 40.1547 414.271 40.64C414.831 41.1253 415.615 41.4613 416.623 41.648C417.669 41.7973 419.031 41.872 420.711 41.872V44H400.943V41.872C402.25 41.8347 403.295 41.7227 404.079 41.536C404.901 41.3493 405.535 41.032 405.983 40.584C406.431 40.136 406.73 39.5013 406.879 38.68C407.029 37.8587 407.103 36.7947 407.103 35.488V9.392C407.103 8.08533 407.029 7.04 406.879 6.256C406.767 5.43466 406.506 4.8 406.095 4.352C405.722 3.86667 405.162 3.54933 404.415 3.4C403.669 3.21333 402.698 3.08266 401.503 3.008V0.879998H419.087C424.239 0.879998 428.215 1.832 431.015 3.736C433.853 5.64 435.271 8.29066 435.271 11.688ZM412.983 20.76H416.959C420.693 20.76 423.455 20.088 425.247 18.744C427.077 17.3627 427.991 15.104 427.991 11.968C427.991 8.944 427.263 6.77866 425.807 5.472C424.389 4.16533 422.149 3.512 419.087 3.512H413.935C413.301 3.512 412.983 3.82933 412.983 4.464V20.76Z" fill="white"/>
</svg>
